<svg width="956" height="256" viewBox="0 0 956 256" fill="none" xmlns="http://www.w3.org/2000/svg">
<path d="M956 175.531C949.862 176 943.724 176 937 176C937 164.723 937.077 153.64 936.957 142.56C936.916 138.83 936.792 135.011 935.976 131.398C934.118 123.164 928.5 120.519 920.729 123.8C913.877 126.692 912 129.493 912 136.826C912 149.641 912 162.456 912 175.635C905.763 175.635 899.578 175.635 893.193 175.635C893.193 153.21 893.193 130.826 893.193 108.222C899.089 108.222 904.831 108.222 910.895 108.222C910.895 110.711 910.895 113.116 910.895 115.847C920.138 107.097 930.169 103.474 942.284 107.96C948.261 110.173 951.622 114.652 954.003 120.199C954.362 121.035 954.906 121.792 955.682 122.293C956 139.688 956 157.375 956 175.531Z" fill="white"/>
<path d="M123.458 256C122 252.893 120.478 249.842 120.138 246.665C119.751 243.044 123.478 240.069 127.464 240C133.227 239.9 136.014 241.658 135.855 246.253C135.75 249.307 134.273 252.314 133.705 255.671C130.639 256 127.277 256 123.458 256Z" fill="white"/>
<path d="M133.542 0C134.666 3.28595 135.823 6.56361 135.878 9.85991C135.953 14.2608 133.249 16.0255 127.835 16C123.768 15.9809 120.449 13.1668 119.961 9.6886C119.43 5.89405 120.822 3.02382 123.29 0.310848C126.361 0 129.723 0 133.542 0Z" fill="white"/>
<path d="M0 124.444C1.48516 124 3.22801 123.507 4.39487 124.116C6.12989 125.023 7.45767 126.708 8.95877 128.063C7.41602 129.375 5.99644 130.896 4.27843 131.912C3.42266 132.418 2.02027 132 0.432574 132C2.98023e-08 129.629 0 127.259 0 124.444Z" fill="white"/>
<path d="M371.86 176C358.085 176 344.793 176 331.251 176C331.251 145.986 331.251 116.262 331.251 86C343.509 86 355.777 86.2577 368.029 85.926C379.807 85.6072 389.995 89.0673 398.707 96.9672C406.955 104.447 411.499 113.747 411.956 124.854C412.345 134.325 412.315 143.751 408.035 152.657C402.437 164.306 393.464 171.727 381.041 174.941C378.238 175.667 375.247 175.666 371.86 176ZM351 114.523C351 128.934 351 143.345 351 158C358.17 158 364.848 158.49 371.417 157.858C377.641 157.258 383.118 154.359 386.987 149.105C392.265 141.935 392.891 133.56 391.781 125.331C390.936 119.069 388.225 113.181 382.785 108.927C373.014 101.286 361.873 104.876 351 103.971C351 107.579 351 110.556 351 114.523Z" fill="white"/>
<path d="M480.182 108.966C492.908 103.397 504.054 106.117 514.816 114.579C514.931 112.063 515.011 110.307 515.103 108.274C520.84 108.274 526.602 108.274 532.771 108.274C532.842 109.561 532.989 110.99 532.99 112.419C533.005 133.079 533.423 153.752 532.867 174.397C532.419 191.046 522.11 202.482 505.214 205.15C491.523 207.311 479.437 204.262 467.403 197.308C469.773 192.562 471.909 188.283 473.694 184.706C480.135 186.238 485.921 188.052 491.845 188.935C505.421 190.958 514.938 185.17 513.883 168.997C511.308 170.691 509.17 172.752 506.622 173.664C494.386 178.043 482.355 177.59 472.385 168.643C462.357 159.644 459.419 147.935 461.728 134.511C463.726 122.895 469.646 114.598 480.182 108.966ZM508.411 157.056C516.941 149.778 515.834 133.562 508.821 127.111C500.781 119.716 485.853 122.003 481.665 133.829C477.107 146.703 482.074 157.256 494.059 160.613C499.252 162.067 503.508 159.651 508.411 157.056Z" fill="white"/>
<path d="M813.827 89.6685C816.1 86.6255 818.724 85.7473 822.2 85.9127C828.62 86.2182 835.065 86 839.751 86C828.565 98.3528 816.713 111.442 804.602 124.816C817.09 141.028 830.326 158.21 844.029 175.999C836.083 175.999 828.552 176.036 821.024 175.938C820.306 175.929 819.402 175.223 818.917 174.587C809.498 162.228 800.128 149.832 790.675 137.346C784.569 141.434 780.853 146.453 781.832 154.665C782.651 161.529 782 168.567 782 175.762C775.285 175.762 768.883 175.762 762.239 175.762C762.239 145.963 762.239 116.239 762.239 86.2576C768.676 86.2576 775.078 86.2576 782.013 86.2576C782.013 97.4438 782.013 108.623 782.013 121.428C793.252 110.219 803.416 100.083 813.827 89.6685Z" fill="white"/>
<path d="M636.971 155.91C632.762 141.627 633.795 128.317 642.935 116.77C651.837 105.522 671.462 100.419 685.719 114.982C685.719 112.628 685.719 110.594 685.719 108.279C692.166 108.279 698.261 108.279 704.679 108.279C704.679 130.552 704.679 152.958 704.679 175.682C698.63 175.682 692.412 175.682 686.068 175.682C686.068 173.589 686.068 171.609 686.068 168.902C676.719 176.865 666.591 180.177 655.118 175.935C645.861 172.512 640.126 165.554 636.971 155.91ZM654.858 134.657C654.572 138.718 653.561 142.891 654.172 146.812C655.068 152.554 658.005 157.648 663.826 159.854C669.795 162.116 675.573 161.538 680.533 156.96C686.831 151.144 687.346 143.796 685.942 136.06C684.783 129.673 678.11 123.377 672.516 123C663.65 122.404 657.833 125.997 654.858 134.657Z" fill="white"/>
<path d="M620.073 125C618.15 125 616.712 125 615.064 125C615.064 142.128 615.064 158.744 615.064 175.68C608.789 175.68 602.715 175.68 596.242 175.68C596.242 159.116 596.242 142.379 596.242 125.247C591.791 125.247 587.712 125.247 583.319 125.247C583.319 119.455 583.319 114.049 583.319 108.241C587.217 108.241 591.294 108.241 595.766 108.241C595.766 102.118 595.766 96.3714 595.766 90.3148C602.222 90.3148 608.296 90.3148 614.772 90.3148C614.772 95.8941 614.772 101.637 614.772 107.774C619.562 107.774 623.973 107.774 628.691 107.774C628.691 113.567 628.691 118.974 628.691 125C626.083 125 623.32 125 620.073 125Z" fill="white"/>
<path d="M106.346 106.007C112.187 103.481 116.935 105.425 121.117 108.72C126.045 112.602 130.486 112.157 134.775 108.771C142.291 102.838 146.902 104.225 152.056 107.67C157.587 111.367 159.695 117.792 156.824 123.477C155.322 126.45 152.447 129.376 149.464 130.825C142.426 134.243 141.003 135.729 140.999 143.656C140.997 148.215 141.44 152.604 137.359 156.328C130.219 162.842 119.315 161.105 115.807 152.101C114.735 149.348 114.74 145.928 115.103 142.916C115.815 137.008 111.428 132.866 107.299 131.108C101.908 128.812 98.3322 125.173 98.0807 119.259C97.8292 113.343 100.273 108.624 106.346 106.007Z" fill="white"/>
<path d="M725.196 175.998C724.142 174.898 723.076 173.801 723.072 172.701C722.982 142.373 723 112.044 723 81.3579C729.132 81.3579 735.211 81.3579 741.646 81.3579C741.646 112.486 741.646 143.891 741.646 176C736.519 176 731.099 176 725.196 175.998Z" fill="white"/>
<path d="M428 168.933C428 148.471 428 128.503 428 108.268C434.324 108.268 440.396 108.268 446.735 108.268C446.735 130.664 446.735 153.066 446.735 175.735C440.671 175.735 434.6 175.735 428 175.735C428 173.636 428 171.531 428 168.933Z" fill="white"/>
<path d="M552 151C552 136.526 552 122.551 552 108.289C558.28 108.289 564.352 108.289 570.714 108.289C570.714 130.619 570.714 153.02 570.714 175.711C564.72 175.711 558.648 175.711 552 175.711C552 167.695 552 159.598 552 151Z" fill="white"/>
<path d="M855 125.002C855 119.192 855 113.882 855 108.287C861.285 108.287 867.356 108.287 873.716 108.287C873.716 130.623 873.716 153.024 873.716 175.713C867.715 175.713 861.644 175.713 855 175.713C855 159.022 855 142.261 855 125.002Z" fill="white"/>
<path d="M91.6949 177.082C87.5095 178.784 83.912 178.571 81.029 175.444C78.2805 172.463 78.5528 169.078 80.1212 165.487C83.3389 158.121 79.7572 151.957 71.982 150.976C67.4402 150.404 63.8998 148.22 63.0705 143.43C62.2579 138.737 64.7203 135.789 68.9888 133.964C80.0339 129.241 92.4841 132.284 98.6812 140.482C107.43 152.055 104.843 163.948 97.4883 172.903C96.094 174.601 93.9069 175.647 91.6949 177.082Z" fill="white"/>
<path d="M188.24 134.694C192.726 136.537 193.648 140.122 192.842 143.761C192.106 147.08 190.182 149.597 185.876 150.135C175.753 151.402 172.628 157.883 176.324 166.732C177.817 170.307 177.272 173.576 174.336 176.073C171.15 178.785 167.306 178.998 163.859 176.894C155.772 171.957 151.7 164.419 152.107 155.044C152.483 146.388 156.146 139.365 164.189 134.919C172.143 130.523 179.938 130.28 188.24 134.694Z" fill="white"/>
<path d="M115.88 93.3744C107.679 87.9273 103.22 81.0108 103.923 71.1389C104.174 67.6119 105.363 64.811 108.753 64.243C112.305 63.648 116.576 62.8008 118.928 66.8626C123.531 74.8118 132.471 74.7828 137.058 66.8904C139.433 62.8036 143.67 63.6643 147.215 64.2345C150.606 64.78 151.717 67.5994 152.085 71.1016C153.858 88.0055 135.75 102.412 115.88 93.3744Z" fill="white"/>
<path d="M208.898 91.0064C199.377 92.8052 194.65 100.172 189.143 106.44C184.167 112.103 174.886 111.623 170.179 105.758C166.133 100.715 167.081 90.9078 173.119 87.695C177.349 85.4441 182.714 85.432 187.406 83.9096C190.815 82.8039 194.363 81.3769 197.115 79.1759C201.371 75.7725 207.221 74.7249 210.256 77.7686C214.153 81.6757 213.879 85.4274 208.898 91.0064Z" fill="white"/>
<path d="M88 97.1353C88.6894 103.228 86.1438 107.325 81.0913 109.211C76.4759 110.934 70.1876 110.95 66.7684 106.342C64.7304 103.595 62.3472 101.096 60.0355 98.5616C56.9502 95.1793 53.7093 92.5076 48.7442 91.5644C46.4764 91.1336 43.8139 87.2518 43.3449 84.5814C42.9497 82.3311 44.9021 78.946 46.8376 77.1898C49.3215 74.9358 53.9525 74.2743 55.8964 76.7631C62.0223 84.6065 71.0699 83.8529 79.1473 85.9659C84.2103 87.2903 87.6569 91.2533 88 97.1353Z" fill="white"/>
<path d="M117.976 196.997C115.526 191.352 114.34 185.902 117.813 180.86C121.536 175.454 127.791 173.885 133.905 177C139.476 179.84 141.619 186.247 139.395 193.106C138.364 196.287 136.725 199.328 136.118 202.574C135.518 205.789 135.351 209.273 135.91 212.479C137.132 219.492 133.782 224.844 126.872 224.062C122.124 223.524 118.613 219.351 120.177 213.748C121.859 207.721 120.313 202.641 117.976 196.997Z" fill="white"/>
<path d="M42.1439 153.62C53.2284 156.876 61.8697 168.42 62.944 178.885C63.2989 182.342 63.6308 186.026 62.7998 189.31C62.1363 191.932 60.1848 194.936 57.9205 196.275C54.7279 198.162 50.4328 197.778 48.2501 194.429C46.7836 192.178 45.9362 188.414 46.7544 185.98C50.035 176.221 48.0644 172.093 38.0621 169.978C32.9933 168.907 29.4599 164.767 30.0055 160.54C30.7886 154.472 33.986 152.524 42.1439 153.62Z" fill="white"/>
<path d="M216.962 169.999C207.569 171.944 206.319 177.784 209.087 184.984C210.555 188.801 210.445 192.07 207.556 194.836C204.519 197.743 200.653 198.05 197.231 195.905C195.418 194.768 193.789 192.429 193.243 190.329C189.659 176.559 199.869 157.864 213.217 153.256C218.25 151.519 224.109 153.822 225.704 158.166C227.567 163.24 224.599 167.453 216.962 169.999Z" fill="white"/>
<path d="M151.999 32.2755C153.149 39.6764 147.65 42.3816 143.182 44.7945C132.781 50.4114 114.676 49.7663 105.91 39.4179C103.329 36.3704 103.281 29.8034 106.112 27.439C109.611 24.5171 116.329 25.1658 118.967 28.6802C125.345 37.1748 130.213 36.9743 137.192 28.6463C138.777 26.7547 142.23 25.3666 144.7 25.5364C148.074 25.7683 151.686 27.3197 151.999 32.2755Z" fill="white"/>
<path d="M202.283 130.777C200.9 129.741 199.797 128.969 198.403 127.994C206.934 120.987 216.279 118.969 226.212 120.159C230.262 120.644 232.208 123.964 232.074 128.418C231.943 132.741 229.734 135.455 225.884 135.878C217.691 136.78 209.727 135.584 202.283 130.777Z" fill="white"/>
<path d="M35.0478 136C26.2659 136 22.7146 132.918 24.2226 126.008C24.7227 123.716 27.6226 120.53 29.7494 120.254C39.6576 118.971 49.0017 120.995 57.5413 127.92C50.9848 133.419 43.8117 136.149 35.0478 136Z" fill="white"/>
<path d="M180.575 38.0834C184.858 42.4209 185.586 47.0079 181.974 51.3146C178.03 56.0189 173.483 60.247 168.945 64.4063C167.668 65.5768 165.501 65.7763 163.549 66.4919C161.485 56.2805 164.442 47.5909 169.214 39.6503C171.571 35.7276 176.209 36.3834 180.575 38.0834Z" fill="white"/>
<path d="M72.0983 214.294C71.9723 203.746 83.392 190.503 92.5657 190.132C94.5555 199.734 91.2496 208.238 86.8909 216.431C85.3222 219.379 78.0493 220.084 75.3645 217.836C74.2269 216.883 73.2393 215.752 72.0983 214.294Z" fill="white"/>
<path d="M88.306 65.0822C83.0355 60.2553 77.6617 55.9005 73.5167 50.5872C71.8403 48.4383 71.9118 43.885 72.8759 40.9876C74.0141 37.567 77.7466 35.9613 81.4615 37.1186C83.6585 37.803 86.2197 39.2137 87.3601 41.0701C92.553 49.523 93.5733 55.1692 92.6829 66.1663C91.3036 65.8213 90 65.4952 88.306 65.0822Z" fill="white"/>
<path d="M163 193.237C163.878 191.857 164.829 190.079 165.623 190.146C171.589 190.654 183.784 204.991 184.076 211.013C184.279 215.202 182.02 217.963 178.761 218.777C174.962 219.726 170.73 219.537 168.381 214.909C164.98 208.211 162.334 201.391 163 193.237Z" fill="white"/>
<path d="M427.62 77.8854C434.096 71.735 444.516 72.8307 447.92 79.6391C449.887 83.5729 449.658 87.8383 446.705 90.3896C443.897 92.8158 439.376 95.1308 435.995 94.6687C426.124 93.3199 423.964 88.7803 427.62 77.8854Z" fill="white"/>
<path d="M568.544 92.8035C564.997 93.3928 561.625 94.6692 558.647 94.0493C550.728 92.4006 547.885 87.2911 550.184 80.3628C551.946 75.0531 560.189 72.2103 566.292 74.8073C574.174 78.1615 575.333 86.0825 568.544 92.8035Z" fill="white"/>
<path d="M871.022 93.4608C865.527 94.9429 860.335 96.0693 855.956 91.4766C850.567 85.8244 852.564 76.4555 860.2 74.4695C868.114 72.4109 877.466 74.8236 875.823 85.9952C875.447 88.549 872.855 90.7766 871.022 93.4608Z" fill="white"/>
<path d="M236.957 181.001C240.797 185.356 241.538 191.613 237.796 193.986C235.208 195.628 230.727 195.745 227.644 194.78C223.764 193.566 222.619 188.241 224.499 184.039C226.213 180.208 229.39 179.056 233.38 180.002C234.454 180.256 235.497 180.639 236.957 181.001Z" fill="white"/>
<path d="M223.288 68.7085C224.314 63.7216 225.689 59.362 232.082 59.9342C236.122 60.2959 239.671 62.7725 239.999 66.2151C240.442 70.8478 238.039 75.2411 234.654 75.9896C229.528 77.1227 225.565 75.2242 224.023 70.8773C223.81 70.2776 223.694 69.6436 223.288 68.7085Z" fill="white"/>
<path d="M27.3775 75.8659C18.6047 76.0279 16.0717 74.0525 15.9582 67.8034C15.8876 63.9184 17.5176 60.8269 21.0857 60.1967C24.8983 59.5233 29.4198 58.9469 31.5417 64.012C33.1989 67.968 32.1755 72.6964 28.9949 75.0102C28.6133 75.2878 28.1874 75.5045 27.3775 75.8659Z" fill="white"/>
<path d="M16 188.833C16.0998 183.218 18.7517 180.121 23.2047 180C29.1554 179.839 32.5563 182.51 32.9588 187.663C33.2061 190.829 29.4671 195.548 26.3577 195.995C20.6399 196.816 17.0749 194.496 16 188.833Z" fill="white"/>
<path d="M165.343 225.245C166.767 225.489 168.884 226.231 168.846 226.366C167.697 230.443 166.597 234.583 164.811 238.395C164.397 239.278 160.751 239.828 159.963 239.083C158.704 237.891 157.535 234.888 158.202 233.712C159.935 230.654 162.687 228.172 165.343 225.245Z" fill="white"/>
<path d="M159.637 25.1704C157.031 21.7587 156.815 18.2865 160.355 16.4884C163.588 14.8469 165.829 17.7326 166.784 20.5975C167.935 24.0483 168.482 27.7005 169.291 31.2655C168.596 31.6318 167.9 31.9981 167.205 32.3645C164.778 30.0564 162.35 27.7484 159.637 25.1704Z" fill="white"/>
<path d="M88.0121 23.3077C88.7216 21.4571 89.0599 19.4902 90.2075 18.7033C91.7432 17.6501 94.0222 16.8314 95.7737 17.1308C98.8078 17.6494 99.1928 20.7079 97.8632 22.6153C95.3606 26.2055 92.0884 29.2592 89.1362 32.536C88.421 32.1483 87.7058 31.7607 86.9907 31.3731C87.3275 28.821 87.6644 26.2689 88.0121 23.3077Z" fill="white"/>
<path d="M241.999 152.923C239.367 157.793 236.481 158.476 234.22 154.417C232.076 150.566 231.403 145.894 230.881 141.223C236.29 143.695 241.031 146.336 241.999 152.923Z" fill="white"/>
<path d="M23.5883 114.847C20.3791 111.895 17.2981 109.262 14.8226 106.148C13.2538 104.174 13.1754 101.792 15.9306 99.9439C18.8836 97.9634 20.7695 99.5169 22.0094 101.666C24.3669 105.752 26.4567 110.076 23.5883 114.847Z" fill="white"/>
<path d="M237.994 99.0229C242.367 101.384 243.388 104.289 240.697 107.581C238.288 110.527 235.18 112.902 232.05 115.839C230.006 108.356 232.345 101.96 237.994 99.0229Z" fill="white"/>
<path d="M20.1535 156.344C13.9748 156.494 11.8881 153.341 15.1969 148.774C17.4894 145.609 20.8194 143.196 24.5139 139.653C25.6105 146.789 24.2396 151.742 20.1535 156.344Z" fill="white"/>
<path d="M87.0883 225.704C91.4872 223.592 93.7742 227.116 95.5649 229.531C97.1424 231.66 97.9004 235.296 97.3174 237.883C96.6817 240.703 91.4797 240.259 90.1236 237.08C88.6419 233.606 88.0122 229.768 87.0883 225.704Z" fill="white"/>
<path d="M191.818 44.686C195.435 41.385 199.434 40.7715 203.807 40.9292C206.581 41.0292 208.056 41.5672 208.086 44.7828C208.117 48.052 206.943 49.0551 203.742 49.0812C199.12 49.1189 194.838 48.6978 191.818 44.686Z" fill="white"/>
<path d="M48.0002 211.003C49.0176 206.801 53.9839 205.538 59.2176 207.758C61.1118 208.561 62.951 209.494 64.9037 210.409C61.0658 215.33 55.7832 215.4 50.5045 214.834C49.5596 214.733 48.8295 212.628 48.0002 211.003Z" fill="white"/>
<path d="M58.3032 41.1052C60.5043 42.2443 62.2935 43.2919 64.1048 44.3523C61.1866 48.4266 53.5877 50.891 49.7278 48.7058C48.634 48.0867 48.0365 45.6398 48.1724 44.1169C48.2716 43.0056 49.8085 41.3816 50.9485 41.1407C53.1724 40.6707 55.5672 41.0096 58.3032 41.1052Z" fill="white"/>
<path d="M197.704 207.104C199.945 207.009 201.781 207.13 203.594 206.972C206.693 206.702 208.083 207.695 208.096 211.106C208.111 214.755 206.209 215.433 203.391 214.959C199.471 214.299 195.599 213.352 191.706 212.528C191.716 211.876 191.726 211.224 191.736 210.571C193.587 209.446 195.438 208.32 197.704 207.104Z" fill="white"/>
<path d="M193.999 20.197C193.928 23.3472 193.154 25.7691 189.825 24.882C188.109 24.4247 185.347 22.5557 185.471 21.6571C185.719 19.8552 187.373 17.31 188.923 16.9074C190.275 16.5564 192.281 18.728 193.999 20.197Z" fill="white"/>
<path d="M255.27 131.234C252.172 131.962 248.895 133.51 247.788 129.25C247.461 127.993 247.787 125.697 248.612 125.199C250.117 124.29 252.242 124.053 254.058 124.191C254.774 124.246 255.686 125.988 255.91 127.083C256.158 128.292 255.718 129.641 255.27 131.234Z" fill="white"/>
<path d="M65.8974 16.041C67.6748 17.6936 69.53 19.1809 70.2431 21.0938C70.5631 21.9524 68.6909 24.6674 67.6491 24.7637C65.8461 24.9306 62.9276 24.2053 62.3007 22.9461C61.5998 21.5384 62.8012 19.0767 63.454 17.1693C63.6403 16.6252 64.7977 16.4134 65.8974 16.041Z" fill="white"/>
<path d="M69.6693 232.216C70.858 237.79 68.7785 240.779 65.1033 239.612C62.0617 238.646 61.1986 236.265 62.1588 233.89C63.4804 230.622 66.278 230.02 69.6693 232.216Z" fill="white"/>
<path d="M193.33 232.828C194.197 238.146 192.28 240.91 189.071 239.425C187.521 238.708 185.966 237.007 185.444 235.414C185.095 234.351 186.401 231.647 187.252 231.515C189.08 231.23 191.093 232.134 193.33 232.828Z" fill="white"/>
</svg>
